<svg width="1024" height="1024" viewBox="0 0 1024 1024" fill="none" xmlns="http://www.w3.org/2000/svg">
<rect width="1024" height="1024" rx="512" fill="#1C1917"/>
<circle cx="518.125" cy="315" r="64.5" fill="#E7E5E4" stroke="#E7E5E4" stroke-linejoin="round"/>
<circle cx="680.625" cy="414.5" r="58" fill="#E7E5E4" stroke="#E7E5E4" stroke-linejoin="round"/>
<circle cx="343.625" cy="411.5" r="58" fill="#E7E5E4" stroke="#E7E5E4" stroke-linejoin="round"/>
<path d="M477.641 399.637C513.989 391.555 561.488 391.984 609.235 417.454L610.363 418.06L610.452 418.122C610.533 418.192 610.59 418.287 610.613 418.394C613.538 431.865 616.536 441.885 621.276 450.802C626.013 459.714 632.507 467.552 642.461 476.63C642.57 476.73 642.63 476.873 642.625 477.02C642.619 477.167 642.548 477.305 642.431 477.395C619.69 495.013 602.605 509.569 588.68 521.227C574.764 532.879 563.983 541.655 553.88 547.679C543.761 553.713 534.309 556.993 523.044 557.655C511.796 558.316 498.768 556.364 481.501 551.985C481.285 551.93 481.131 551.738 481.125 551.514L479.126 481.611C477.433 477.586 475.249 475.337 472.479 474.554C469.663 473.759 466.102 474.435 461.586 476.601C452.554 480.935 440.088 491.034 422.952 505.878C422.772 506.033 422.508 506.041 422.32 505.896L385.32 477.396C385.2 477.304 385.127 477.161 385.125 477.009C385.122 476.858 385.188 476.713 385.304 476.616C391.239 471.67 405.082 456.046 412.65 433.341C413.403 431.083 415.6 428.37 418.952 425.464C422.321 422.544 426.915 419.38 432.553 416.235C443.832 409.945 459.325 403.71 477.641 399.637Z" fill="#E7E5E4" stroke="#E7E5E4" stroke-linejoin="round"/>
<mask id="path-6-inside-1_1_66" fill="white">
<path d="M516.125 628C542.345 610.802 543.625 587 518.125 575C400.625 559.5 438.125 498 345.625 486C159.125 525.5 392.625 805 534.5 771.5C531.5 758 530.5 751.5 528 733C419.469 693.856 373.359 617.229 392.625 587C452.723 620.042 479.839 629.115 516.125 628Z"/>
</mask>
<path d="M516.125 628C542.345 610.802 543.625 587 518.125 575C400.625 559.5 438.125 498 345.625 486C159.125 525.5 392.625 805 534.5 771.5C531.5 758 530.5 751.5 528 733C419.469 693.856 373.359 617.229 392.625 587C452.723 620.042 479.839 629.115 516.125 628Z" fill="#E7E5E4"/>
<path d="M518.338 574.548C518.196 574.849 518.054 575.151 517.912 575.452C526.258 579.32 534.268 586.027 535.77 595.342C537.327 604.635 532.007 613.606 525.404 619.995C522.499 622.835 519.258 625.346 515.85 627.582L516.109 627.5C471.434 630.162 431.21 607.066 392.865 586.562C392.634 586.434 392.345 586.508 392.203 586.731C377.304 623.098 409.263 656.501 434.129 679.795C461.388 703.733 493.787 721.156 527.83 733.47L527.505 733.067C527.689 734.433 527.869 735.757 528.054 737.113C529.597 748.667 531.386 760.226 534.012 771.608L534.385 771.013C528.921 772.307 523.203 773.139 517.604 773.517C439.892 775.02 372.776 722.421 324.584 665.163C301.118 635.646 280.089 601.309 276.993 563.088C271.764 522.896 308.274 492.189 345.728 486.489L345.56 486.496C369.166 489.319 392.742 497.669 409.104 515.28C425.105 532.572 440.835 551.913 463.298 561.201C480.604 569.008 499.178 572.964 518.059 575.496C518.103 575.165 518.146 574.835 518.19 574.504C499.367 571.982 480.878 568.035 463.712 560.29C441.425 551.061 425.951 532.015 409.815 514.576C393.308 496.796 369.384 488.325 345.689 485.504C345.654 485.5 345.556 485.503 345.521 485.511C307.907 491.15 270.641 522.474 275.995 563.15C279.136 601.76 300.273 636.172 323.806 665.791C372.175 723.207 439.304 775.986 517.672 774.514C523.321 774.133 529.095 773.294 534.615 771.987C534.887 771.922 535.049 771.664 534.988 771.392C532.367 760.026 530.589 748.536 529.045 736.978C528.86 735.622 528.68 734.299 528.495 732.933C528.474 732.775 528.32 732.584 528.17 732.53C494.223 720.251 461.928 702.878 434.79 679.045C409.959 655.955 378.524 622.286 393.046 587.269L392.384 587.438C430.727 607.936 471.136 631.168 516.14 628.5C516.202 628.498 516.347 628.452 516.399 628.418C519.851 626.152 523.142 623.605 526.103 620.71C532.818 614.207 538.381 604.965 536.757 595.179C535.161 585.371 526.821 578.482 518.338 574.548ZM517.912 575.452L518.338 574.548C518.308 574.534 518.222 574.509 518.19 574.504L518.059 575.496L517.912 575.452Z" fill="#E7E5E4" mask="url(#path-6-inside-1_1_66)"/>
<mask id="path-8-inside-2_1_66" fill="white">
<path d="M516.415 628C490.194 610.802 488.915 587 514.415 575C631.915 559.5 594.415 498 686.915 486C873.415 525.5 639.915 805 498.039 771.5C501.039 758 502.039 751.5 504.539 733C613.07 693.856 659.18 617.229 639.915 587C579.816 620.042 552.701 629.115 516.415 628Z"/>
</mask>
<path d="M516.415 628C490.194 610.802 488.915 587 514.415 575C631.915 559.5 594.415 498 686.915 486C873.415 525.5 639.915 805 498.039 771.5C501.039 758 502.039 751.5 504.539 733C613.07 693.856 659.18 617.229 639.915 587C579.816 620.042 552.701 629.115 516.415 628Z" fill="#E7E5E4"/>
<path d="M514.202 574.548C514.344 574.849 514.486 575.151 514.628 575.452C506.281 579.32 498.271 586.027 496.769 595.342C495.212 604.635 500.532 613.606 507.135 619.995C510.041 622.835 513.281 625.346 516.689 627.582L516.43 627.5C561.105 630.162 601.329 607.066 639.674 586.562C639.906 586.434 640.194 586.508 640.336 586.731C655.235 623.098 623.276 656.501 598.41 679.795C571.151 703.733 538.753 721.156 504.709 733.47L505.035 733.067C504.85 734.433 504.671 735.757 504.485 737.113C502.942 748.667 501.153 760.226 498.527 771.608L498.154 771.013C503.618 772.307 509.337 773.139 514.935 773.517C592.647 775.02 659.763 722.421 707.955 665.163C731.421 635.646 752.451 601.309 755.546 563.088C760.775 522.896 724.265 492.189 686.811 486.489L686.979 486.496C663.374 489.319 639.798 497.669 623.435 515.28C607.434 532.572 591.705 551.913 569.241 561.201C551.935 569.008 533.362 572.964 514.48 575.496C514.436 575.165 514.393 574.835 514.349 574.504C533.172 571.982 551.662 568.035 568.827 560.29C591.114 551.061 606.588 532.015 622.725 514.576C639.231 496.796 663.156 488.325 686.85 485.504C686.886 485.5 686.984 485.503 687.018 485.511C724.632 491.15 761.898 522.474 756.545 563.15C753.403 601.76 732.266 636.172 708.733 665.791C660.364 723.207 593.235 775.986 514.867 774.514C509.218 774.133 503.445 773.294 497.924 771.987C497.653 771.922 497.491 771.664 497.551 771.392C500.173 760.026 501.95 748.536 503.495 736.978C503.68 735.622 503.859 734.299 504.044 732.933C504.065 732.775 504.22 732.584 504.37 732.53C538.317 720.251 570.611 702.878 597.749 679.045C622.58 655.955 654.015 622.286 639.493 587.269L640.156 587.438C601.813 607.936 561.404 631.168 516.399 628.5C516.337 628.498 516.193 628.452 516.14 628.418C512.688 626.152 509.398 623.605 506.436 620.71C499.722 614.207 494.158 604.965 495.783 595.179C497.378 585.371 505.718 578.482 514.202 574.548ZM514.628 575.452L514.202 574.548C514.231 574.534 514.317 574.509 514.349 574.504L514.48 575.496L514.628 575.452Z" fill="#E7E5E4" mask="url(#path-8-inside-2_1_66)"/>
</svg>
